<?xml version="1.0" encoding="UTF-8"?>
<svg id="Layer_2" data-name="Layer 2" xmlns="http://www.w3.org/2000/svg" version="1.1" xmlns:xlink="http://www.w3.org/1999/xlink" viewBox="0 0 128 110.2">
  <defs>
    <style>
      .cls-1 {
        clip-path: url(#clippath-2);
      }

      .cls-2 {
        fill: none;
      }

      .cls-2, .cls-3, .cls-4, .cls-5, .cls-6, .cls-7, .cls-8, .cls-9 {
        stroke-width: 0px;
      }

      .cls-10 {
        clip-path: url(#clippath-1);
      }

      .cls-11 {
        clip-path: url(#clippath-4);
      }

      .cls-3 {
        fill: #f9b12a;
      }

      .cls-4 {
        fill: url(#radial-gradient-2);
      }

      .cls-12 {
        clip-path: url(#clippath);
      }

      .cls-5 {
        fill: url(#radial-gradient-5);
      }

      .cls-6 {
        fill: url(#radial-gradient);
      }

      .cls-13 {
        clip-path: url(#clippath-3);
      }

      .cls-7 {
        fill: #fff;
      }

      .cls-8 {
        fill: url(#radial-gradient-3);
      }

      .cls-9 {
        fill: url(#radial-gradient-4);
      }
    </style>
    <clipPath id="clippath">
      <path class="cls-2" d="M64,1.2c-.8,0-1.5.4-1.9,1.2-8.4,20.8,6.8,21,21,23.4-3.6-.6-6.4-2.7-8.1-5.9l-9-17.5c-.4-.8-1.2-1.2-1.9-1.2h0Z"/>
    </clipPath>
    <radialGradient id="radial-gradient" cx=".2" cy="110.2" fx=".2" fy="110.2" r=".9" gradientTransform="translate(-4477.4 -18.5) rotate(90) scale(41.3 -41.3)" gradientUnits="userSpaceOnUse">
      <stop offset="0" stop-color="#fff"/>
      <stop offset=".3" stop-color="#fff"/>
      <stop offset=".6" stop-color="#f9b12a"/>
      <stop offset="1" stop-color="#6f0400"/>
    </radialGradient>
    <clipPath id="clippath-1">
      <path class="cls-2" d="M69.1,69l17.5,8.9c1.6.8,3.5-.5,3.2-2.3l-3-19.4c-.6-3.6.5-7,3.1-9.6l13.8-13.9c1.3-1.3.6-3.5-1.2-3.8-25.4.5-21.8,29.4-33.4,40.1"/>
    </clipPath>
    <radialGradient id="radial-gradient-2" cx="0" cy="110.3" fx="0" fy="110.3" r=".9" gradientTransform="translate(6052.9 86.4) rotate(-90) scale(54.1 -54.1)" xlink:href="#radial-gradient"/>
    <clipPath id="clippath-2">
      <path class="cls-2" d="M53.1,19.9c20.9,6.9,23.7,27.8,6.4,48.9,3.1-1.4,6.4-1.3,9.5.2,11.6-10.6,8-39.6,33.4-40.1-6.5-1-12.9-2.1-19.4-3.1-14.2-2.3-29.4-2.6-21-23.4l-9,17.5Z"/>
    </clipPath>
    <radialGradient id="radial-gradient-3" cx="0" cy="110.2" fx="0" fy="110.2" r=".9" gradientTransform="translate(-12331.5 -23.5) rotate(90) scale(112.5 -112.5)" xlink:href="#radial-gradient"/>
    <clipPath id="clippath-3">
      <path class="cls-2" d="M41.4,56.1l-3,19.4c-.3,1.8,1.6,3.2,3.2,2.3l6.2-3.1c11.2-10.1-.5-19.5-9.5-28.1,2.6,2.6,3.7,5.9,3.1,9.6"/>
    </clipPath>
    <radialGradient id="radial-gradient-4" cx="0" cy="110.1" fx="0" fy="110.1" r=".9" gradientTransform="translate(14.4 5387.3) scale(48.3 -48.3)" gradientUnits="userSpaceOnUse">
      <stop offset="0" stop-color="#fff"/>
      <stop offset=".1" stop-color="#fff"/>
      <stop offset=".5" stop-color="#e82d89"/>
      <stop offset="1" stop-color="#67358c"/>
      <stop offset="1" stop-color="#67358c"/>
    </radialGradient>
    <clipPath id="clippath-4">
      <path class="cls-2" d="M25.7,28.9c-1.8.3-2.5,2.5-1.2,3.8l13.8,13.9c9,8.6,20.7,18.1,9.5,28.1,21.8-15.1,22.9-48.3-2.8-48.9l-19.4,3.1Z"/>
    </clipPath>
    <radialGradient id="radial-gradient-5" cx="0" cy="110.2" fx="0" fy="110.2" r=".9" gradientTransform="translate(-9675.4 0) rotate(90) scale(88.3 -88.3)" xlink:href="#radial-gradient-4"/>
  </defs>
  <g class="cls-12">
    <rect class="cls-6" x="53.7" y="1.2" width="29.4" height="24.6"/>
  </g>
  <g class="cls-10">
    <rect class="cls-4" x="56.4" y="24.7" width="61.4" height="58.2" transform="translate(-7.4 93.2) rotate(-54.4)"/>
  </g>
  <g class="cls-1">
    <rect class="cls-8" x="53.1" y="2.4" width="49.4" height="66.6"/>
  </g>
  <g class="cls-13">
    <rect class="cls-9" x="29.4" y="44.6" width="38.2" height="36" transform="translate(-30.7 63.6) rotate(-53)"/>
  </g>
  <g class="cls-11">
    <rect class="cls-5" x="23.1" y="25.8" width="47.5" height="48.9"/>
  </g>
  <g>
    <path class="cls-3" d="M6,94.9c-.7-.4-1.2-.9-1.6-1.5-.4-.6-.6-1.4-.6-2.2s.2-1.5.6-2.2c.4-.6.9-1.1,1.6-1.5s1.4-.5,2.3-.5,1.6.2,2.3.5,1.2.9,1.6,1.5c.4.6.6,1.4.6,2.2s-.2,1.5-.6,2.2c-.4.6-.9,1.1-1.6,1.5s-1.4.5-2.3.5-1.6-.2-2.3-.5ZM9.6,93.5c.4-.2.7-.5.9-.9.2-.4.3-.8.3-1.4s-.1-1-.3-1.4c-.2-.4-.5-.7-.9-.9s-.8-.3-1.3-.3-.9.1-1.3.3c-.4.2-.7.5-.9.9-.2.4-.3.8-.3,1.4s.1,1,.3,1.4c.2.4.5.7.9.9.4.2.8.3,1.3.3s.9-.1,1.3-.3Z"/>
    <path class="cls-3" d="M19.6,87.5c.5.2.9.6,1.2,1,.3.4.4,1,.4,1.6s-.1,1.1-.4,1.6c-.3.4-.7.8-1.2,1s-1.2.4-1.9.4h-1.6v2.2h-1.9v-8.2h3.5c.7,0,1.3.1,1.9.4ZM18.9,91.2c.3-.2.4-.6.4-1s-.1-.8-.4-1.1c-.3-.2-.7-.4-1.3-.4h-1.5v2.8h1.5c.6,0,1-.1,1.3-.4Z"/>
    <path class="cls-3" d="M28.9,93.8v1.5h-6.3v-8.2h6.2v1.5h-4.3v1.8h3.8v1.5h-3.8v1.9h4.4Z"/>
    <path class="cls-3" d="M37.9,87.2v8.2h-1.6l-4.1-5v5h-1.9v-8.2h1.6l4.1,5v-5h1.9Z"/>
    <path class="cls-3" d="M50.2,91.8c.3.3.4.8.4,1.3,0,.7-.3,1.3-.8,1.6s-1.4.6-2.4.6h-4.2v-8.2h4c1,0,1.8.2,2.3.6.5.4.8.9.8,1.5s0,.8-.3,1.1c-.2.3-.5.6-.8.7.5.1.8.4,1.1.7ZM45,88.6v1.9h1.9c.5,0,.8,0,1.1-.2s.4-.4.4-.7-.1-.6-.4-.7-.6-.2-1.1-.2h-1.9ZM48.4,93.7c.3-.2.4-.4.4-.8,0-.7-.5-1-1.5-1h-2.2v2h2.2c.5,0,.9,0,1.1-.2Z"/>
    <path class="cls-3" d="M58.4,93.8v1.5h-6.3v-8.2h6.2v1.5h-4.3v1.8h3.8v1.5h-3.8v1.9h4.4Z"/>
    <path class="cls-3" d="M59.9,87.2h1.9v6.6h4.1v1.5h-6v-8.2Z"/>
    <path class="cls-3" d="M66.9,87.2h1.9v6.6h4.1v1.5h-6v-8.2Z"/>
    <path class="cls-3" d="M77.1,92.4v2.9h-1.9v-2.9l-3.2-5.2h2l2.2,3.6,2.2-3.6h1.9l-3.2,5.3Z"/>
    <path class="cls-3" d="M81,87.2h3.7c.9,0,1.7.2,2.3.5s1.2.8,1.6,1.4c.4.6.6,1.3.6,2.1s-.2,1.5-.6,2.1c-.4.6-.9,1.1-1.6,1.4s-1.5.5-2.3.5h-3.7v-8.2ZM84.6,93.8c.8,0,1.5-.2,2-.7.5-.5.7-1.1.7-1.8s-.2-1.4-.7-1.8c-.5-.5-1.1-.7-2-.7h-1.7v5.1h1.7Z"/>
    <path class="cls-3" d="M95.8,93.6h-3.8l-.7,1.7h-1.9l3.6-8.2h1.9l3.6,8.2h-2l-.7-1.7ZM95.3,92.2l-1.3-3.1-1.3,3.1h2.6Z"/>
    <path class="cls-3" d="M106.9,87.2v8.2h-1.5l-4.1-5v5h-1.9v-8.2h1.6l4.1,5v-5h1.9Z"/>
    <path class="cls-3" d="M110.5,94.9c-.7-.4-1.2-.9-1.6-1.5s-.6-1.4-.6-2.2.2-1.5.6-2.2c.4-.6.9-1.1,1.6-1.5s1.4-.5,2.3-.5,1.3.1,1.9.4c.6.2,1.1.6,1.4,1.1l-1.2,1.1c-.6-.6-1.2-1-2.1-1s-1,.1-1.4.3c-.4.2-.7.5-.9.9-.2.4-.3.8-.3,1.4s.1,1,.3,1.4c.2.4.5.7.9.9.4.2.8.3,1.4.3.8,0,1.5-.3,2.1-1l1.2,1.1c-.4.5-.9.8-1.4,1.1-.6.2-1.2.4-1.9.4s-1.6-.2-2.3-.5Z"/>
    <path class="cls-3" d="M123.7,93.8v1.5h-6.3v-8.2h6.2v1.5h-4.3v1.8h3.8v1.5h-3.8v1.9h4.4Z"/>
  </g>
  <g>
    <path class="cls-7" d="M6.3,107.2c-.7-.4-1.3-.9-1.7-1.6-.4-.7-.6-1.5-.6-2.4s.2-1.7.6-2.4,1-1.2,1.7-1.6c.7-.4,1.6-.6,2.5-.6s1.5.1,2.1.4c.6.3,1.1.7,1.6,1.2l-1.3,1.2c-.6-.7-1.4-1-2.2-1s-1,.1-1.5.4-.8.6-1,1c-.2.4-.4.9-.4,1.5s.1,1,.4,1.5c.2.4.6.8,1,1s.9.4,1.5.4c.9,0,1.6-.4,2.2-1.1l1.3,1.2c-.4.5-1,.9-1.6,1.2s-1.3.4-2.1.4-1.7-.2-2.5-.6Z"/>
    <path class="cls-7" d="M23.2,98.7v8.9h-2.1v-3.7h-4.1v3.7h-2.1v-8.9h2.1v3.5h4.1v-3.5h2.1Z"/>
    <path class="cls-7" d="M32.4,105.7h-4.1l-.8,1.9h-2.1l4-8.9h2l4,8.9h-2.2l-.8-1.9ZM31.7,104.1l-1.4-3.4-1.4,3.4h2.8Z"/>
    <path class="cls-7" d="M45.6,107.6v-5.3s-2.6,4.4-2.6,4.4h-.9l-2.6-4.3v5.2h-1.9v-8.9h1.7l3.3,5.5,3.3-5.5h1.7v8.9s-1.9,0-1.9,0Z"/>
    <path class="cls-7" d="M56.8,99.1c.6.3,1,.6,1.3,1.1.3.5.5,1.1.5,1.7s-.2,1.2-.5,1.7c-.3.5-.8.9-1.3,1.1-.6.3-1.3.4-2.1.4h-1.8v2.5h-2.1v-8.9h3.9c.8,0,1.5.1,2.1.4ZM56,103.1c.3-.3.5-.6.5-1.1s-.2-.9-.5-1.2c-.3-.3-.8-.4-1.4-.4h-1.7v3.1h1.7c.6,0,1.1-.1,1.4-.4Z"/>
    <path class="cls-7" d="M61.3,98.7h2.1v8.9h-2.1v-8.9Z"/>
    <path class="cls-7" d="M68.5,107.2c-.7-.4-1.3-.9-1.7-1.6-.4-.7-.6-1.5-.6-2.4s.2-1.7.6-2.4c.4-.7,1-1.2,1.7-1.6s1.6-.6,2.5-.6,1.8.2,2.5.6,1.3.9,1.7,1.6c.4.7.6,1.5.6,2.4s-.2,1.7-.6,2.4c-.4.7-1,1.3-1.7,1.6-.7.4-1.6.6-2.5.6s-1.8-.2-2.5-.6ZM72.4,105.6c.4-.2.8-.6,1-1,.2-.4.4-.9.4-1.5s-.1-1-.4-1.5c-.2-.4-.6-.8-1-1s-.9-.4-1.4-.4-1,.1-1.4.4c-.4.2-.8.6-1,1-.2.4-.4.9-.4,1.5s.1,1,.4,1.5c.2.4.6.8,1,1,.4.2.9.4,1.4.4s1-.1,1.4-.4Z"/>
    <path class="cls-7" d="M86.8,98.7v8.9h-1.7l-4.4-5.4v5.4h-2v-8.9h1.7l4.4,5.4v-5.4h2Z"/>
    <path class="cls-7" d="M91,107.5c-.7-.2-1.2-.4-1.6-.7l.7-1.6c.4.3.8.5,1.4.7s1.1.3,1.6.3,1,0,1.3-.3c.3-.2.4-.4.4-.7s0-.4-.2-.5c-.2-.1-.4-.3-.6-.3s-.6-.2-1.1-.3c-.7-.2-1.2-.3-1.7-.5-.4-.2-.8-.4-1.1-.8-.3-.4-.5-.8-.5-1.4s.1-1,.4-1.4c.3-.4.7-.8,1.3-1,.6-.2,1.3-.4,2.1-.4s1.1,0,1.7.2c.5.1,1,.3,1.4.6l-.6,1.6c-.8-.5-1.6-.7-2.5-.7s-1,0-1.3.3c-.3.2-.4.4-.4.7s.2.5.5.7.8.3,1.5.4c.7.2,1.2.3,1.7.5.4.2.8.4,1.1.8.3.3.5.8.5,1.4s-.1,1-.4,1.4c-.3.4-.7.8-1.3,1-.6.2-1.3.4-2.1.4s-1.4,0-2-.3Z"/>
    <path class="cls-7" d="M107.6,98.7v8.9h-2.1v-3.7h-4.1v3.7h-2.1v-8.9h2.1v3.5h4.1v-3.5h2.1Z"/>
    <path class="cls-7" d="M110.9,98.7h2.1v8.9h-2.1v-8.9Z"/>
    <path class="cls-7" d="M122.2,99.1c.6.3,1,.6,1.3,1.1.3.5.5,1.1.5,1.7s-.2,1.2-.5,1.7c-.3.5-.8.9-1.3,1.1-.6.3-1.3.4-2.1.4h-1.8v2.5h-2.1v-8.9h3.9c.8,0,1.5.1,2.1.4ZM121.5,103.1c.3-.3.5-.6.5-1.1s-.2-.9-.5-1.2c-.3-.3-.8-.4-1.4-.4h-1.7v3.1h1.7c.6,0,1.1-.1,1.4-.4Z"/>
  </g>
</svg>